<svg width="60" height="60" viewBox="0 0 60 60" fill="none" xmlns="http://www.w3.org/2000/svg">
<rect width="60" height="60" rx="12" fill="#767877" fill-opacity="0.1"/>
<path d="M25.6449 33.127C25.4303 33.127 25.2856 33.148 25.2109 33.169V34.5433C25.2996 34.5643 25.4104 34.5701 25.5633 34.5701C26.1221 34.5701 26.4663 34.2878 26.4663 33.8106C26.4663 33.3836 26.1699 33.127 25.6449 33.127ZM29.7131 33.141C29.4798 33.141 29.3281 33.162 29.2383 33.183V36.228C29.3281 36.249 29.4728 36.249 29.6034 36.249C30.5566 36.256 31.1773 35.731 31.1773 34.6203C31.1843 33.652 30.6184 33.141 29.7131 33.141Z" fill="#9A9A9A"/>
<path d="M32.3327 18.333H22.9993C22.3805 18.333 21.787 18.5788 21.3494 19.0164C20.9118 19.454 20.666 20.0475 20.666 20.6663V39.333C20.666 39.9518 20.9118 40.5453 21.3494 40.9829C21.787 41.4205 22.3805 41.6663 22.9993 41.6663H36.9993C37.6182 41.6663 38.2117 41.4205 38.6493 40.9829C39.0868 40.5453 39.3327 39.9518 39.3327 39.333V25.333L32.3327 18.333ZM27.0803 34.888C26.7198 35.2263 26.1878 35.378 25.5683 35.378C25.4482 35.3803 25.3281 35.3732 25.209 35.357V37.0207H24.166V32.4287C24.6367 32.3587 25.1123 32.3267 25.5882 32.333C26.238 32.333 26.7 32.4567 27.0115 32.7052C27.3078 32.9408 27.5085 33.327 27.5085 33.782C27.5073 34.2393 27.3557 34.6255 27.0803 34.888ZM31.5218 36.4688C31.0318 36.876 30.2863 37.0697 29.3752 37.0697C28.8292 37.0697 28.443 37.0347 28.1805 36.9997V32.4298C28.6514 32.3614 29.1269 32.329 29.6027 32.333C30.4858 32.333 31.0598 32.4917 31.5078 32.83C31.992 33.1893 32.2953 33.7622 32.2953 34.5847C32.2953 35.4748 31.9698 36.0897 31.5218 36.4688ZM35.8327 33.2313H34.0453V34.2942H35.716V35.1505H34.0453V37.0218H32.9883V32.368H35.8327V33.2313ZM32.3327 26.4997H31.166V20.6663L36.9993 26.4997H32.3327Z" fill="#9A9A9A"/>
</svg>
