<svg width="60" height="60" viewBox="0 0 60 60" fill="none" xmlns="http://www.w3.org/2000/svg">
<circle cx="30" cy="30" r="30" fill="white"/>
<path fill-rule="evenodd" clip-rule="evenodd" d="M30 52.5C42.4264 52.5 52.5 42.4264 52.5 30C52.5 17.5736 42.4264 7.5 30 7.5C17.5736 7.5 7.5 17.5736 7.5 30C7.5 42.4264 17.5736 52.5 30 52.5ZM30 60C46.5685 60 60 46.5685 60 30C60 13.4315 46.5685 0 30 0C13.4315 0 0 13.4315 0 30C0 46.5685 13.4315 60 30 60Z" fill="#FF3E41"/>
<rect x="24.75" y="27.75" width="10.5" height="18" rx="2" fill="#FF3E41"/>
<circle cx="30" cy="19.5" r="5.25" fill="#FF3E41"/>
</svg>
