<svg width="26" height="26" viewBox="0 0 26 26" fill="none" xmlns="http://www.w3.org/2000/svg">
<rect width="26" height="26" rx="13" fill="#FF3E41"/>
<path d="M7.66666 9.00004C7.66666 8.82323 7.73689 8.65366 7.86192 8.52864C7.98694 8.40361 8.15651 8.33337 8.33332 8.33337H17.6667C17.8435 8.33337 18.013 8.40361 18.1381 8.52864C18.2631 8.65366 18.3333 8.82323 18.3333 9.00004C18.3333 9.17685 18.2631 9.34642 18.1381 9.47144C18.013 9.59647 17.8435 9.66671 17.6667 9.66671H8.33332C8.15651 9.66671 7.98694 9.59647 7.86192 9.47144C7.73689 9.34642 7.66666 9.17685 7.66666 9.00004ZM7.66666 13C7.66666 12.8232 7.73689 12.6537 7.86192 12.5286C7.98694 12.4036 8.15651 12.3334 8.33332 12.3334H17.6667C17.8435 12.3334 18.013 12.4036 18.1381 12.5286C18.2631 12.6537 18.3333 12.8232 18.3333 13C18.3333 13.1769 18.2631 13.3464 18.1381 13.4714C18.013 13.5965 17.8435 13.6667 17.6667 13.6667H8.33332C8.15651 13.6667 7.98694 13.5965 7.86192 13.4714C7.73689 13.3464 7.66666 13.1769 7.66666 13ZM8.33332 16.3334C8.15651 16.3334 7.98694 16.4036 7.86192 16.5286C7.73689 16.6537 7.66666 16.8232 7.66666 17C7.66666 17.1769 7.73689 17.3464 7.86192 17.4714C7.98694 17.5965 8.15651 17.6667 8.33332 17.6667H17.6667C17.8435 17.6667 18.013 17.5965 18.1381 17.4714C18.2631 17.3464 18.3333 17.1769 18.3333 17C18.3333 16.8232 18.2631 16.6537 18.1381 16.5286C18.013 16.4036 17.8435 16.3334 17.6667 16.3334H8.33332Z" fill="#F8F9FF"/>
</svg>
