<svg width="28" height="28" viewBox="0 0 28 28" fill="none" xmlns="http://www.w3.org/2000/svg">
<path d="M12.25 12.6875C12.25 12.2234 12.4344 11.7783 12.7626 11.4501C13.0908 11.1219 13.5359 10.9375 14 10.9375C14.4641 10.9375 14.9092 11.1219 15.2374 11.4501C15.5656 11.7783 15.75 12.2234 15.75 12.6875M24.5 10.9375H25.375M24.5 10.9375C24.5 16.1875 23.625 17.9375 20.125 17.9375C16.625 17.9375 15.75 16.1875 15.75 10.9375C15.75 10.9375 16.625 10.0625 20.125 10.0625C23.625 10.0625 24.5 10.9375 24.5 10.9375ZM3.5 10.9375H2.625M3.5 10.9375C3.5 16.1875 4.375 17.9375 7.875 17.9375C11.375 17.9375 12.25 16.1875 12.25 10.9375C12.25 10.9375 11.375 10.0625 7.875 10.0625C4.375 10.0625 3.5 10.9375 3.5 10.9375Z" stroke="#35383F" stroke-width="1.2" stroke-linecap="round" stroke-linejoin="round"/>
</svg>
