<svg width="32" height="32" viewBox="0 0 32 32" fill="none" xmlns="http://www.w3.org/2000/svg">
<path d="M18.6502 10.8824L7.9691 21.5636C7.78699 21.7457 7.54002 21.848 7.2825 21.848C7.02499 21.848 6.77801 21.7457 6.5959 21.5636L1.25516 16.2232C1.07305 16.0411 0.970725 15.7942 0.970703 15.5366C0.970681 15.2791 1.07296 15.0321 1.25504 14.85C1.43713 14.6679 1.6841 14.5656 1.94162 14.5655C2.19915 14.5655 2.44613 14.6678 2.62825 14.8499L7.28244 19.5037L17.2769 9.50903C17.459 9.32692 17.706 9.22461 17.9636 9.22461C18.2211 9.22461 18.4681 9.32692 18.6502 9.50903C18.8323 9.69115 18.9346 9.93815 18.9346 10.1957C18.9346 10.4532 18.8323 10.7002 18.6502 10.8824H18.6502ZM29.817 9.50903C29.6348 9.32699 29.3878 9.22473 29.1303 9.22473C28.8728 9.22473 28.6258 9.32699 28.4436 9.50903L18.4492 19.5037L16.2986 17.3534C16.1165 17.1713 15.8695 17.0691 15.612 17.0691C15.3545 17.0691 15.1075 17.1714 14.9254 17.3535C14.7434 17.5357 14.6411 17.7826 14.6411 18.0402C14.6411 18.2977 14.7434 18.5447 14.9256 18.7267L17.7626 21.5636C17.9448 21.7457 18.1917 21.848 18.4492 21.848C18.7068 21.848 18.9537 21.7457 19.1358 21.5636L29.817 10.8824C29.9991 10.7002 30.1014 10.4532 30.1014 10.1957C30.1014 9.93816 29.9991 9.69116 29.817 9.50903V9.50903Z" fill="#FF3E41"/>
</svg>
