<svg width="20" height="20" viewBox="0 0 20 20" fill="none" xmlns="http://www.w3.org/2000/svg">
<path d="M15.8327 3.33301H4.16602C3.50297 3.33301 2.86709 3.5964 2.39825 4.06524C1.92941 4.53408 1.66602 5.16997 1.66602 5.83301V14.1663C1.66602 14.8294 1.92941 15.4653 2.39825 15.9341C2.86709 16.4029 3.50297 16.6663 4.16602 16.6663H15.8327C16.4957 16.6663 17.1316 16.4029 17.6004 15.9341C18.0693 15.4653 18.3327 14.8294 18.3327 14.1663V5.83301C18.3327 5.16997 18.0693 4.53408 17.6004 4.06524C17.1316 3.5964 16.4957 3.33301 15.8327 3.33301ZM15.8327 4.99967L10.416 8.72467C10.2893 8.79781 10.1456 8.83632 9.99935 8.83632C9.85307 8.83632 9.70936 8.79781 9.58268 8.72467L4.16602 4.99967H15.8327Z" fill="#FF3E41"/>
</svg>
