<svg width="184" height="29" viewBox="0 0 184 29" fill="none" xmlns="http://www.w3.org/2000/svg">
<rect y="13.7358" width="14.7925" height="14.7925" fill="#FB1816"/>
<rect x="15.9141" width="12.085" height="21.753" fill="#FB1816"/>
<rect x="6.24609" width="21.753" height="12.085" fill="#FB1816"/>
<path d="M39.4707 21H32.5537V20.3145C32.7119 20.3027 32.9434 20.2852 33.248 20.2617C33.5586 20.2383 33.7725 20.2031 33.8896 20.1562C34.1064 20.0684 34.2529 19.9541 34.3291 19.8135C34.4111 19.667 34.4521 19.4824 34.4521 19.2598V10.418C34.4521 10.2188 34.4141 10.043 34.3379 9.89062C34.2617 9.73828 34.1123 9.61523 33.8896 9.52148C33.749 9.46289 33.541 9.4043 33.2656 9.3457C32.9902 9.28125 32.7529 9.2373 32.5537 9.21387V8.52832H39.4707V9.21387C39.2949 9.23145 39.0752 9.25781 38.8115 9.29297C38.5479 9.32227 38.3252 9.36621 38.1436 9.4248C37.915 9.50098 37.7627 9.62109 37.6865 9.78516C37.6104 9.94336 37.5723 10.125 37.5723 10.3301V19.1631C37.5723 19.374 37.6104 19.5557 37.6865 19.708C37.7686 19.8545 37.9209 19.9746 38.1436 20.0684C38.2666 20.1211 38.4688 20.1738 38.75 20.2266C39.0371 20.2734 39.2773 20.3027 39.4707 20.3145V21ZM57.7783 21H51.0195V20.3145C51.2188 20.2969 51.4619 20.2676 51.749 20.2266C52.042 20.1855 52.2412 20.1416 52.3467 20.0947C52.5635 20.0068 52.7188 19.8867 52.8125 19.7344C52.9062 19.582 52.9531 19.3887 52.9531 19.1543V9.83789L48.6641 20.7979H47.5566C47.5039 20.6045 47.3721 20.2207 47.1611 19.6465C46.9561 19.0723 46.7891 18.6123 46.6602 18.2666L43.5049 9.69727V17.2822C43.5049 18.0088 43.5518 18.5625 43.6455 18.9434C43.7451 19.3184 43.9033 19.5938 44.1201 19.7695C44.2666 19.8926 44.5273 20.0098 44.9023 20.1211C45.2832 20.2324 45.5498 20.2969 45.7021 20.3145V21H40.3408V20.3145C40.4873 20.2969 40.7246 20.2588 41.0527 20.2002C41.3867 20.1357 41.6592 20.0273 41.8701 19.875C42.1045 19.7109 42.2627 19.4355 42.3447 19.0488C42.4268 18.6562 42.4678 18.0996 42.4678 17.3789V11.2002C42.4678 10.8252 42.4209 10.5146 42.3271 10.2686C42.2334 10.0166 42.0928 9.81738 41.9053 9.6709C41.6709 9.48926 41.4307 9.37207 41.1846 9.31934C40.9385 9.2666 40.6895 9.23145 40.4375 9.21387V8.52832H46.1768L49.2529 16.7637L51.8457 10.0752C51.9336 9.8291 52.0186 9.53613 52.1006 9.19629C52.1826 8.85645 52.2266 8.63379 52.2324 8.52832H57.7607V9.21387C57.5732 9.22559 57.377 9.24902 57.1719 9.28418C56.9668 9.31934 56.7705 9.36621 56.583 9.4248C56.3545 9.50098 56.2021 9.62109 56.126 9.78516C56.0557 9.94922 56.0205 10.1309 56.0205 10.3301V19.1631C56.0205 19.374 56.0557 19.5527 56.126 19.6992C56.2021 19.8398 56.3545 19.9629 56.583 20.0684C56.7002 20.1211 56.8906 20.1709 57.1543 20.2178C57.4238 20.2646 57.6318 20.2969 57.7783 20.3145V21ZM73.7129 21H68.7734C68.0293 19.8574 67.3584 18.9023 66.7607 18.1348C66.1631 17.3672 65.3984 16.4033 64.4668 15.2432H64.0098V19.1631C64.0098 19.374 64.0479 19.5527 64.124 19.6992C64.2002 19.8457 64.3525 19.9688 64.5811 20.0684C64.6865 20.1152 64.8418 20.1621 65.0469 20.209C65.2578 20.2559 65.4658 20.291 65.6709 20.3145V21H59.0439V20.3145C59.2021 20.3027 59.4248 20.2852 59.7119 20.2617C60.0049 20.2383 60.21 20.2031 60.3271 20.1562C60.5381 20.0742 60.6846 19.96 60.7666 19.8135C60.8486 19.667 60.8896 19.4824 60.8896 19.2598V10.418C60.8896 10.2129 60.8545 10.04 60.7842 9.89941C60.7139 9.75879 60.5615 9.63281 60.3271 9.52148C60.1455 9.43945 59.9258 9.37207 59.668 9.31934C59.4102 9.2666 59.2021 9.23145 59.0439 9.21387V8.52832H65.8906V9.21387C65.709 9.23145 65.4893 9.25781 65.2314 9.29297C64.9795 9.32227 64.7627 9.36621 64.5811 9.4248C64.3525 9.50098 64.2002 9.62109 64.124 9.78516C64.0479 9.94922 64.0098 10.1309 64.0098 10.3301V14.5312H64.3789C64.8359 14.1152 65.3691 13.6143 65.9785 13.0283C66.5879 12.4424 67.0596 11.9619 67.3936 11.5869C67.8623 11.0654 68.2051 10.6523 68.4219 10.3477C68.6445 10.043 68.7559 9.7793 68.7559 9.55664C68.7559 9.45703 68.6504 9.38086 68.4395 9.32812C68.2285 9.27539 67.9062 9.2373 67.4727 9.21387V8.52832H72.8955V9.21387C72.2393 9.28418 71.6885 9.4043 71.2432 9.57422C70.7979 9.73828 70.3555 10.0166 69.916 10.4092C69.2891 10.9717 68.7705 11.4609 68.3604 11.877C67.9561 12.2871 67.4346 12.8145 66.7959 13.459C67.3584 14.1445 68.0352 14.9854 68.8262 15.9814C69.6172 16.9717 70.4053 17.9385 71.1904 18.8818C71.3896 19.1221 71.6182 19.3535 71.876 19.5762C72.1338 19.793 72.418 19.9688 72.7285 20.1035C72.875 20.168 73.042 20.2178 73.2295 20.2529C73.417 20.2881 73.5781 20.3086 73.7129 20.3145V21ZM85.2969 9.91699C85.9121 10.4795 86.3984 11.1592 86.7559 11.9561C87.1191 12.7529 87.3008 13.6611 87.3008 14.6807C87.3008 15.5889 87.1484 16.4531 86.8438 17.2734C86.5391 18.0938 86.0996 18.7998 85.5254 19.3916C84.9219 20.0068 84.2129 20.4873 83.3984 20.833C82.584 21.1729 81.6143 21.3428 80.4893 21.3428C79.5811 21.3428 78.7227 21.1934 77.9141 20.8945C77.1055 20.5957 76.3936 20.1621 75.7783 19.5938C75.1689 19.0371 74.6855 18.3604 74.3281 17.5635C73.9707 16.7666 73.792 15.8789 73.792 14.9004C73.792 13.8809 73.9648 12.958 74.3105 12.1318C74.6621 11.2998 75.1426 10.5879 75.752 9.99609C76.3555 9.41602 77.0703 8.9707 77.8965 8.66016C78.7285 8.34375 79.6133 8.18555 80.5508 8.18555C81.4824 8.18555 82.3555 8.33789 83.1699 8.64258C83.9902 8.94727 84.6992 9.37207 85.2969 9.91699ZM83.0381 18.8379C83.3018 18.3047 83.4922 17.7012 83.6094 17.0273C83.7266 16.3535 83.7852 15.5918 83.7852 14.7422C83.7852 14.0215 83.7324 13.3213 83.627 12.6416C83.5273 11.9561 83.3545 11.3467 83.1084 10.8135C82.8564 10.2803 82.5225 9.85254 82.1064 9.53027C81.6904 9.20801 81.1719 9.04688 80.5508 9.04688C79.4902 9.04688 78.6846 9.55078 78.1338 10.5586C77.583 11.5605 77.3076 12.9785 77.3076 14.8125C77.3076 15.5918 77.3662 16.3271 77.4834 17.0186C77.6064 17.71 77.7969 18.3135 78.0547 18.8291C78.3184 19.3506 78.6523 19.7578 79.0566 20.0508C79.4609 20.3379 79.959 20.4814 80.5508 20.4814C81.1309 20.4814 81.6289 20.335 82.0449 20.042C82.4609 19.749 82.792 19.3477 83.0381 18.8379ZM102.866 9.21387C102.702 9.23145 102.468 9.26367 102.163 9.31055C101.858 9.35742 101.583 9.47168 101.337 9.65332C101.12 9.81152 100.965 10.084 100.871 10.4707C100.783 10.8516 100.739 11.4141 100.739 12.1582V21.0703H99.1748L91.4053 11.4287V17.2822C91.4053 18.0088 91.4521 18.5625 91.5459 18.9434C91.6455 19.3184 91.8037 19.5938 92.0205 19.7695C92.1787 19.8984 92.4307 20.0127 92.7764 20.1123C93.1221 20.2119 93.3975 20.2793 93.6025 20.3145V21H88.2412V20.3145C88.4697 20.2969 88.7305 20.2559 89.0234 20.1914C89.3223 20.1211 89.5713 20.0156 89.7705 19.875C89.999 19.7051 90.1543 19.4502 90.2363 19.1104C90.3242 18.7646 90.3682 18.1875 90.3682 17.3789V11.4727C90.3682 11.1797 90.3213 10.9043 90.2275 10.6465C90.1396 10.3828 89.999 10.1572 89.8057 9.96973C89.6006 9.77051 89.3633 9.61523 89.0938 9.50391C88.8301 9.38672 88.5283 9.2959 88.1885 9.23145V8.52832H92.8818L99.7021 16.9658V12.2461C99.7021 11.4961 99.6523 10.9395 99.5527 10.5762C99.4531 10.207 99.2949 9.93457 99.0781 9.75879C98.9082 9.62402 98.6562 9.50977 98.3223 9.41602C97.9883 9.31641 97.7188 9.24902 97.5137 9.21387V8.52832H102.866V9.21387ZM119.434 11.8594H118.757C118.587 11.373 118.285 10.8574 117.852 10.3125C117.424 9.76172 117.017 9.45996 116.63 9.40723C116.454 9.38379 116.22 9.36328 115.927 9.3457C115.634 9.32812 115.364 9.31934 115.118 9.31934H113.176V14.2148H114.415C114.767 14.2148 115.071 14.1768 115.329 14.1006C115.587 14.0186 115.815 13.875 116.015 13.6699C116.161 13.5234 116.302 13.2803 116.437 12.9404C116.577 12.5947 116.662 12.2988 116.691 12.0527H117.359V17.2998H116.691C116.668 17.0361 116.577 16.7168 116.419 16.3418C116.261 15.9609 116.126 15.709 116.015 15.5859C115.845 15.3984 115.628 15.2607 115.364 15.1729C115.101 15.0791 114.784 15.0322 114.415 15.0322H113.176V19.1631C113.176 19.374 113.214 19.5557 113.29 19.708C113.372 19.8545 113.524 19.9746 113.747 20.0684C113.876 20.1211 114.052 20.1709 114.274 20.2178C114.503 20.2588 114.729 20.291 114.951 20.3145V21H108.228V20.3145C108.397 20.2969 108.623 20.2734 108.904 20.2441C109.186 20.209 109.382 20.168 109.493 20.1211C109.704 20.0391 109.851 19.9248 109.933 19.7783C110.015 19.6318 110.056 19.4443 110.056 19.2158V10.418C110.056 10.2188 110.018 10.0459 109.941 9.89941C109.871 9.74707 109.722 9.62109 109.493 9.52148C109.329 9.45117 109.112 9.38672 108.843 9.32812C108.573 9.26953 108.368 9.23145 108.228 9.21387V8.52832H119.434V11.8594ZM127.186 21H120.269V20.3145C120.427 20.3027 120.658 20.2852 120.963 20.2617C121.273 20.2383 121.487 20.2031 121.604 20.1562C121.821 20.0684 121.968 19.9541 122.044 19.8135C122.126 19.667 122.167 19.4824 122.167 19.2598V10.418C122.167 10.2188 122.129 10.043 122.053 9.89062C121.977 9.73828 121.827 9.61523 121.604 9.52148C121.464 9.46289 121.256 9.4043 120.98 9.3457C120.705 9.28125 120.468 9.2373 120.269 9.21387V8.52832H127.186V9.21387C127.01 9.23145 126.79 9.25781 126.526 9.29297C126.263 9.32227 126.04 9.36621 125.858 9.4248C125.63 9.50098 125.478 9.62109 125.401 9.78516C125.325 9.94336 125.287 10.125 125.287 10.3301V19.1631C125.287 19.374 125.325 19.5557 125.401 19.708C125.483 19.8545 125.636 19.9746 125.858 20.0684C125.981 20.1211 126.184 20.1738 126.465 20.2266C126.752 20.2734 126.992 20.3027 127.186 20.3145V21ZM142.681 9.21387C142.517 9.23145 142.282 9.26367 141.978 9.31055C141.673 9.35742 141.397 9.47168 141.151 9.65332C140.935 9.81152 140.779 10.084 140.686 10.4707C140.598 10.8516 140.554 11.4141 140.554 12.1582V21.0703H138.989L131.22 11.4287V17.2822C131.22 18.0088 131.267 18.5625 131.36 18.9434C131.46 19.3184 131.618 19.5938 131.835 19.7695C131.993 19.8984 132.245 20.0127 132.591 20.1123C132.937 20.2119 133.212 20.2793 133.417 20.3145V21H128.056V20.3145C128.284 20.2969 128.545 20.2559 128.838 20.1914C129.137 20.1211 129.386 20.0156 129.585 19.875C129.813 19.7051 129.969 19.4502 130.051 19.1104C130.139 18.7646 130.183 18.1875 130.183 17.3789V11.4727C130.183 11.1797 130.136 10.9043 130.042 10.6465C129.954 10.3828 129.813 10.1572 129.62 9.96973C129.415 9.77051 129.178 9.61523 128.908 9.50391C128.645 9.38672 128.343 9.2959 128.003 9.23145V8.52832H132.696L139.517 16.9658V12.2461C139.517 11.4961 139.467 10.9395 139.367 10.5762C139.268 10.207 139.109 9.93457 138.893 9.75879C138.723 9.62402 138.471 9.50977 138.137 9.41602C137.803 9.31641 137.533 9.24902 137.328 9.21387V8.52832H142.681V9.21387ZM157.007 21H150.213V20.3145C150.529 20.291 150.901 20.2354 151.329 20.1475C151.757 20.0537 151.971 19.9395 151.971 19.8047C151.971 19.7578 151.965 19.7051 151.953 19.6465C151.947 19.5879 151.924 19.5088 151.883 19.4092L150.819 16.8252H146.513C146.413 17.0654 146.302 17.3467 146.179 17.6689C146.062 17.9912 145.959 18.2783 145.871 18.5303C145.76 18.8584 145.692 19.0957 145.669 19.2422C145.651 19.3887 145.643 19.4912 145.643 19.5498C145.643 19.7373 145.783 19.8984 146.064 20.0332C146.352 20.1621 146.826 20.2559 147.488 20.3145V21H142.373V20.3145C142.566 20.3027 142.783 20.2734 143.023 20.2266C143.27 20.1738 143.463 20.1035 143.604 20.0156C143.844 19.875 144.046 19.7021 144.21 19.4971C144.38 19.292 144.521 19.0488 144.632 18.7676C145.312 17.1211 145.991 15.4717 146.671 13.8193C147.356 12.167 148.112 10.3447 148.938 8.35254H150.696C151.845 11.1768 152.744 13.4092 153.395 15.0498C154.045 16.6904 154.599 18.0498 155.056 19.1279C155.132 19.3037 155.229 19.4648 155.346 19.6113C155.463 19.752 155.63 19.8867 155.847 20.0156C156.011 20.1094 156.201 20.1797 156.418 20.2266C156.635 20.2734 156.831 20.3027 157.007 20.3145V21ZM150.459 15.9551L148.648 11.4375L146.864 15.9551H150.459ZM171.456 9.21387C171.292 9.23145 171.058 9.26367 170.753 9.31055C170.448 9.35742 170.173 9.47168 169.927 9.65332C169.71 9.81152 169.555 10.084 169.461 10.4707C169.373 10.8516 169.329 11.4141 169.329 12.1582V21.0703H167.765L159.995 11.4287V17.2822C159.995 18.0088 160.042 18.5625 160.136 18.9434C160.235 19.3184 160.394 19.5938 160.61 19.7695C160.769 19.8984 161.021 20.0127 161.366 20.1123C161.712 20.2119 161.987 20.2793 162.192 20.3145V21H156.831V20.3145C157.06 20.2969 157.32 20.2559 157.613 20.1914C157.912 20.1211 158.161 20.0156 158.36 19.875C158.589 19.7051 158.744 19.4502 158.826 19.1104C158.914 18.7646 158.958 18.1875 158.958 17.3789V11.4727C158.958 11.1797 158.911 10.9043 158.817 10.6465C158.729 10.3828 158.589 10.1572 158.396 9.96973C158.19 9.77051 157.953 9.61523 157.684 9.50391C157.42 9.38672 157.118 9.2959 156.778 9.23145V8.52832H161.472L168.292 16.9658V12.2461C168.292 11.4961 168.242 10.9395 168.143 10.5762C168.043 10.207 167.885 9.93457 167.668 9.75879C167.498 9.62402 167.246 9.50977 166.912 9.41602C166.578 9.31641 166.309 9.24902 166.104 9.21387V8.52832H171.456V9.21387ZM177.477 21.334C176.715 21.334 176.003 21.2402 175.341 21.0527C174.685 20.8652 174.128 20.6426 173.671 20.3848L173.064 21H172.317L172.203 16.4912H172.959C173.129 16.9189 173.346 17.3701 173.609 17.8447C173.873 18.3193 174.178 18.7441 174.523 19.1191C174.881 19.5117 175.279 19.8311 175.719 20.0771C176.164 20.3232 176.683 20.4463 177.274 20.4463C178.071 20.4463 178.681 20.2529 179.103 19.8662C179.53 19.4736 179.744 18.9814 179.744 18.3896C179.744 17.9033 179.562 17.4961 179.199 17.168C178.842 16.834 178.285 16.5469 177.529 16.3066C177.037 16.1484 176.583 16.002 176.167 15.8672C175.757 15.7324 175.37 15.5947 175.007 15.4541C174.169 15.1201 173.545 14.6426 173.135 14.0215C172.73 13.4004 172.528 12.7061 172.528 11.9385C172.528 11.4521 172.634 10.9863 172.845 10.541C173.056 10.0898 173.363 9.68555 173.768 9.32812C174.154 8.99414 174.649 8.72168 175.253 8.51074C175.856 8.2998 176.513 8.19434 177.222 8.19434C177.913 8.19434 178.561 8.29102 179.164 8.48438C179.768 8.67188 180.242 8.8623 180.588 9.05566L181.124 8.52832H181.889L181.959 12.7822H181.203C181.027 12.3252 180.819 11.8594 180.579 11.3848C180.345 10.9043 180.096 10.5059 179.832 10.1895C179.545 9.84961 179.214 9.58008 178.839 9.38086C178.464 9.17578 178.024 9.07324 177.521 9.07324C176.888 9.07324 176.369 9.25195 175.965 9.60938C175.566 9.9668 175.367 10.4092 175.367 10.9365C175.367 11.4346 175.54 11.8418 175.886 12.1582C176.237 12.4746 176.782 12.7529 177.521 12.9932C177.954 13.1396 178.396 13.2861 178.848 13.4326C179.299 13.5791 179.7 13.7197 180.052 13.8545C180.901 14.1826 181.546 14.6367 181.985 15.2168C182.431 15.791 182.653 16.5059 182.653 17.3613C182.653 17.9004 182.527 18.4219 182.275 18.9258C182.023 19.4297 181.684 19.8486 181.256 20.1826C180.787 20.5518 180.245 20.8359 179.63 21.0352C179.015 21.2344 178.297 21.334 177.477 21.334Z" fill="#FB1816"/>
</svg>
