<svg width="16" height="16" viewBox="0 0 16 16" fill="none" xmlns="http://www.w3.org/2000/svg">
<path d="M2.66666 4.00004C2.66666 3.82323 2.73689 3.65366 2.86192 3.52864C2.98694 3.40361 3.15651 3.33337 3.33332 3.33337H12.6667C12.8435 3.33337 13.013 3.40361 13.1381 3.52864C13.2631 3.65366 13.3333 3.82323 13.3333 4.00004C13.3333 4.17685 13.2631 4.34642 13.1381 4.47144C13.013 4.59647 12.8435 4.66671 12.6667 4.66671H3.33332C3.15651 4.66671 2.98694 4.59647 2.86192 4.47144C2.73689 4.34642 2.66666 4.17685 2.66666 4.00004ZM2.66666 8.00004C2.66666 7.82323 2.73689 7.65366 2.86192 7.52864C2.98694 7.40361 3.15651 7.33337 3.33332 7.33337H12.6667C12.8435 7.33337 13.013 7.40361 13.1381 7.52864C13.2631 7.65366 13.3333 7.82323 13.3333 8.00004C13.3333 8.17685 13.2631 8.34642 13.1381 8.47144C13.013 8.59647 12.8435 8.66671 12.6667 8.66671H3.33332C3.15651 8.66671 2.98694 8.59647 2.86192 8.47144C2.73689 8.34642 2.66666 8.17685 2.66666 8.00004ZM3.33332 11.3334C3.15651 11.3334 2.98694 11.4036 2.86192 11.5286C2.73689 11.6537 2.66666 11.8232 2.66666 12C2.66666 12.1769 2.73689 12.3464 2.86192 12.4714C2.98694 12.5965 3.15651 12.6667 3.33332 12.6667H12.6667C12.8435 12.6667 13.013 12.5965 13.1381 12.4714C13.2631 12.3464 13.3333 12.1769 13.3333 12C13.3333 11.8232 13.2631 11.6537 13.1381 11.5286C13.013 11.4036 12.8435 11.3334 12.6667 11.3334H3.33332Z" fill="#F8F9FF"/>
</svg>
