<svg width="28" height="28" viewBox="0 0 28 28" fill="none" xmlns="http://www.w3.org/2000/svg">
<path d="M15.1312 22.4937C14.9672 22.3296 14.8751 22.1071 14.8751 21.875C14.8751 21.643 14.9672 21.4204 15.1312 21.2563L21.5126 14.875H4.375C4.14294 14.875 3.92038 14.7828 3.75628 14.6187C3.59219 14.4546 3.5 14.2321 3.5 14C3.5 13.768 3.59219 13.5454 3.75628 13.3813C3.92038 13.2172 4.14294 13.125 4.375 13.125H21.5126L15.1312 6.74373C15.05 6.66247 14.9855 6.56601 14.9416 6.45984C14.8976 6.35368 14.875 6.23989 14.875 6.12498C14.875 6.01007 14.8976 5.89629 14.9416 5.79013C14.9856 5.68397 15.05 5.58751 15.1313 5.50626C15.2126 5.42501 15.309 5.36056 15.4152 5.31659C15.5213 5.27262 15.6351 5.25 15.75 5.25C15.8649 5.25 15.9787 5.27264 16.0849 5.31662C16.1911 5.3606 16.2875 5.42506 16.3688 5.50631L24.2438 13.3813C24.2466 13.3841 24.249 13.3873 24.2518 13.3902C24.2691 13.4079 24.2858 13.4261 24.3015 13.4452C24.3103 13.4559 24.318 13.4672 24.3262 13.4782C24.3351 13.4901 24.3443 13.5017 24.3526 13.5141C24.3611 13.5268 24.3685 13.54 24.3763 13.5531C24.3831 13.5646 24.3903 13.5757 24.3966 13.5875C24.4036 13.6007 24.4096 13.6142 24.4159 13.6276C24.4218 13.6401 24.428 13.6524 24.4334 13.6652C24.4387 13.6781 24.443 13.6913 24.4477 13.7045C24.4527 13.7183 24.458 13.7319 24.4622 13.746C24.4662 13.7591 24.4691 13.7724 24.4724 13.7857C24.4761 13.8001 24.4801 13.8144 24.483 13.8291C24.4861 13.8443 24.4879 13.8597 24.4901 13.8751C24.4919 13.888 24.4944 13.9006 24.4956 13.9137C24.4985 13.9424 24.5 13.9712 24.5 14C24.5 14.0289 24.4985 14.0576 24.4956 14.0864C24.4944 14.0994 24.4919 14.1121 24.4901 14.125C24.4879 14.1403 24.4861 14.1557 24.483 14.171C24.4801 14.1857 24.4761 14.2 24.4724 14.2144C24.4691 14.2276 24.4662 14.2409 24.4622 14.254C24.458 14.2681 24.4527 14.2818 24.4477 14.2956C24.443 14.3087 24.4387 14.322 24.4334 14.3349C24.428 14.3476 24.4218 14.3599 24.4159 14.3724C24.4096 14.3858 24.4036 14.3994 24.3966 14.4125C24.3903 14.4243 24.3831 14.4355 24.3763 14.4469C24.3685 14.46 24.3611 14.4733 24.3526 14.486C24.3443 14.4983 24.3351 14.5099 24.3262 14.5218C24.318 14.5328 24.3103 14.5441 24.3015 14.5548C24.2855 14.5743 24.2685 14.5928 24.2509 14.6109C24.2484 14.6134 24.2463 14.6162 24.2438 14.6187L16.3688 22.4937C16.2875 22.575 16.191 22.6394 16.0849 22.6834C15.9787 22.7274 15.8649 22.75 15.75 22.75C15.6351 22.75 15.5213 22.7274 15.4151 22.6834C15.309 22.6394 15.2125 22.575 15.1312 22.4937Z" fill="white"/>
</svg>
