<svg width="64" height="64" viewBox="0 0 64 64" fill="none" xmlns="http://www.w3.org/2000/svg">
<rect width="64" height="64" rx="12" fill="#F7F7F7"/>
<path opacity="0.5" d="M41.3327 24H22.666C21.6051 24 20.5877 24.4214 19.8376 25.1716C19.0874 25.9217 18.666 26.9391 18.666 28V31.6267L27.782 34.6667H36.2167L45.3327 31.6267V28C45.3327 26.9391 44.9113 25.9217 44.1611 25.1716C43.411 24.4214 42.3935 24 41.3327 24Z" fill="#FF3E41"/>
<path d="M29.3327 24V22.6667H34.666V24H37.3327V22.6667C37.3327 21.9594 37.0517 21.2811 36.5516 20.781C36.0515 20.281 35.3733 20 34.666 20H29.3327C28.6254 20 27.9472 20.281 27.4471 20.781C26.947 21.2811 26.666 21.9594 26.666 22.6667V24H29.3327ZM27.782 34.6667L18.666 31.6267V40C18.6671 41.0605 19.0888 42.0773 19.8388 42.8273C20.5887 43.5772 21.6055 43.9989 22.666 44H41.3327C42.3932 43.9989 43.41 43.5772 44.1599 42.8273C44.9099 42.0773 45.3316 41.0605 45.3327 40V31.6267L36.2167 34.6667H27.782Z" fill="#FF3E41"/>
</svg>
